<svg version="1" xmlns="http://www.w3.org/2000/svg" width="341.333" height="341.333" viewBox="0 0 256.000000 256.000000"><path d="M85 1.4c-5.9 1.2-15.1 5.5-18.7 8.8-1.9 1.7-2.9 1.9-7 1.3-12.5-2-20.6-.8-28.9 4-19.9 11.7-25.7 37-12.8 56.4l2.6 4 .2 75.8c.2 74.5.3 75.9 2.3 81.1 4.6 11.4 13.9 19.7 24.5 21.8 6 1.2 116.8 1.1 122.3-.1 12.3-2.8 21-10.4 24.8-21.6 2-5.8 2.6-11.1 2.8-24.5l.3-11.2 3.5-.5c7.6-1.2 9.8-1.9 15.8-5.3 9.6-5.4 18.2-16.6 22.8-29.9.9-2.8 2-5.7 2.2-6.5.7-1.8.8-2.4 2.7-12 2.6-14 1.5-30.3-2.9-39.5-6.2-13.1-22.3-17.6-42.1-11.9-2.1.6-2.2.3-2.2-7.7 0-6.7.3-8.9 1.9-11.1 1.1-1.5 3.2-5.3 4.6-8.5 2.3-5 2.7-7.1 2.7-14.8-.1-7.8-.5-9.8-3.1-15.5-4.3-9.4-10.1-15.3-18.7-19.5-9.1-4.4-18.9-5.3-27.9-2.5-5.3 1.6-6.1 1.7-10.5.3-2.9-1-8.7-1.6-14.9-1.6-5.7 0-10.3-.4-10.3-.7 0-1.1-11.1-6.7-15.5-7.9C99.3.5 91 .2 85 1.4zm19.5 21.5c2.2 1.2 6 3.8 8.5 5.7 4.1 3.3 4.8 3.6 9 3 12.6-1.8 13.5-1.8 20 .4 9.3 3.1 9.6 3.2 15.3.6 7-3 13.5-3.3 18.4-.8 13.5 7 15.1 24 3 33.6-3.8 3.1-4 3.1-14.6 2.9-9.3-.2-11.1.1-14.6 2-7.3 4.1-10.5 14.7-8.4 27.2.4 2.2 1 5.9 1.3 8.3.3 2.3 1.2 7.7 2.1 12 3.4 17.1 3.8 30.5 1 34.8-2.3 3.5-4.9 4.5-12.5 4.6-8.6.1-13.3-2.5-14.8-8.2-1.2-4.6.1-19.3 2.8-33.5 5.5-29 5.1-37.4-2.2-44.1-4.1-3.6-8.8-4.9-14.5-4C90.5 69.7 86.8 69 77 62.8c-5.3-3.4-6.9-3.2-15.3 1.9-7.6 4.8-14.3 5.4-20.6 2.1-11.5-6-14.3-20.9-5.8-30.1 6.3-6.9 13.7-8.3 23.5-4.4 7.2 2.8 9.8 2.5 14.8-1.9 6-5.5 9.6-8.1 12.9-9.2 4.8-1.6 13.5-.8 18 1.7zM79.5 86c6.3 2.3 17.9 3.3 22.7 1.9 1.4-.4 2.8-.5 3.1-.3.4.4-.4 7.1-1.7 14.4-1.3 7 .4 6.5-21.8 6.5-11.2 0-20.8.1-21.3.3-1.2.3-1.3 96.8-.1 106.4.8 6.7 2.8 12 6.2 16.5 1.3 1.7 2.4 3.6 2.4 4.1 0 1.2-12.8.6-18.2-.9-4.6-1.2-8.4-4.8-9.6-9.2-1-3.7-1.3-19.9-1.5-88.9L39.5 88l7.5.3c7.9.3 14.6-.9 19.5-3.6 3.3-1.9 4.4-1.8 13 1.3zm97.6 8.2c0 3.2.1 7.7.1 10l.1 4.3-7.1.1-7.1.2-1-4.7c-.6-2.5-1.3-7.1-1.6-10.1l-.6-5.5 8.6-.1 8.5-.1.1 5.9zm44.6 15.6c3.7 2.4 5.8 17.2 3.8 28.2-2.4 14-8.5 28-14.3 33.1-3.8 3.4-9 5.9-12 5.9-1.9 0-2-1.2-2.1-30.3l-.1-30.4 3.1-2.4c1.7-1.3 4.5-2.9 6.3-3.6 3.5-1.3 13.5-1.7 15.3-.5z"/></svg>